solid corner-coupler-flat
facet normal 0.9914448613738104 0.13052619222005182 0.0
  outer loop
    vertex 11.9 15.0 9.164891068280667e-15
    vertex 12.005629938503889 14.197660960182185 5.0
    vertex 12.005629938503889 14.197660960182185 9.164891068280667e-15
  endloop
endfacet
facet normal 0.9914448613738104 0.13052619222005182 0.0
  outer loop
    vertex 12.005629938503889 14.197660960182185 5.0
    vertex 11.9 15.0 9.164891068280667e-15
    vertex 11.9 15.0 5.0
  endloop
endfacet
facet normal 0.9238795325112868 0.38268343236508956 0.0
  outer loop
    vertex 12.005629938503889 14.197660960182185 9.164891068280667e-15
    vertex 12.31532124826824 13.450000000000001 5.0
    vertex 12.31532124826824 13.450000000000001 9.164891068280667e-15
  endloop
endfacet
facet normal 0.9238795325112868 0.38268343236508956 0.0
  outer loop
    vertex 12.31532124826824 13.450000000000001 5.0
    vertex 12.005629938503889 14.197660960182185 9.164891068280667e-15
    vertex 12.005629938503889 14.197660960182185 5.0
  endloop
endfacet
facet normal 0.7933533402912342 0.6087614290087221 0.0
  outer loop
    vertex 12.31532124826824 13.450000000000001 9.164891068280667e-15
    vertex 12.807968978321703 12.807968978321703 5.0
    vertex 12.807968978321703 12.807968978321703 9.164891068280667e-15
  endloop
endfacet
facet normal 0.7933533402912342 0.6087614290087221 0.0
  outer loop
    vertex 12.807968978321703 12.807968978321703 5.0
    vertex 12.31532124826824 13.450000000000001 9.164891068280667e-15
    vertex 12.31532124826824 13.450000000000001 5.0
  endloop
endfacet
facet normal 0.6087614290087221 0.7933533402912342 0.0
  outer loop
    vertex 12.807968978321703 12.807968978321703 5.0
    vertex 13.450000000000001 12.31532124826824 9.164891068280667e-15
    vertex 12.807968978321703 12.807968978321703 9.164891068280667e-15
  endloop
endfacet
facet normal 0.6087614290087221 0.7933533402912342 0.0
  outer loop
    vertex 13.450000000000001 12.31532124826824 9.164891068280667e-15
    vertex 12.807968978321703 12.807968978321703 5.0
    vertex 13.450000000000001 12.31532124826824 5.0
  endloop
endfacet
facet normal 0.3826834323650884 0.9238795325112875 0.0
  outer loop
    vertex 13.450000000000001 12.31532124826824 5.0
    vertex 14.197660960182187 12.005629938503889 9.164891068280667e-15
    vertex 13.450000000000001 12.31532124826824 9.164891068280667e-15
  endloop
endfacet
facet normal 0.3826834323650884 0.9238795325112875 0.0
  outer loop
    vertex 14.197660960182187 12.005629938503889 9.164891068280667e-15
    vertex 13.450000000000001 12.31532124826824 5.0
    vertex 14.197660960182187 12.005629938503889 5.0
  endloop
endfacet
facet normal 0.13052619222005227 0.9914448613738104 0.0
  outer loop
    vertex 14.197660960182187 12.005629938503889 5.0
    vertex 15.0 11.9 9.164891068280667e-15
    vertex 14.197660960182187 12.005629938503889 9.164891068280667e-15
  endloop
endfacet
facet normal 0.13052619222005227 0.9914448613738104 0.0
  outer loop
    vertex 15.0 11.9 9.164891068280667e-15
    vertex 14.197660960182187 12.005629938503889 5.0
    vertex 15.0 11.9 5.0
  endloop
endfacet
facet normal -0.13052619222005182 0.9914448613738104 -0.0
  outer loop
    vertex 15.0 11.9 5.0
    vertex 15.802339039817817 12.005629938503889 9.164891068280667e-15
    vertex 15.0 11.9 9.164891068280667e-15
  endloop
endfacet
facet normal -0.13052619222005182 0.9914448613738104 -0.0
  outer loop
    vertex 15.802339039817817 12.005629938503889 9.164891068280667e-15
    vertex 15.0 11.9 5.0
    vertex 15.802339039817817 12.005629938503889 5.0
  endloop
endfacet
facet normal -0.38268343236508984 0.9238795325112868 -0.0
  outer loop
    vertex 15.802339039817817 12.005629938503889 5.0
    vertex 16.550000000000004 12.315321248268242 9.164891068280667e-15
    vertex 15.802339039817817 12.005629938503889 9.164891068280667e-15
  endloop
endfacet
facet normal -0.38268343236508984 0.9238795325112868 -0.0
  outer loop
    vertex 16.550000000000004 12.315321248268242 9.164891068280667e-15
    vertex 15.802339039817817 12.005629938503889 5.0
    vertex 16.550000000000004 12.315321248268242 5.0
  endloop
endfacet
facet normal -0.6087614290087227 0.7933533402912338 -0.0
  outer loop
    vertex 16.550000000000004 12.315321248268242 5.0
    vertex 17.192031021678297 12.807968978321703 9.164891068280667e-15
    vertex 16.550000000000004 12.315321248268242 9.164891068280667e-15
  endloop
endfacet
facet normal -0.6087614290087227 0.7933533402912338 -0.0
  outer loop
    vertex 17.192031021678297 12.807968978321703 9.164891068280667e-15
    vertex 16.550000000000004 12.315321248268242 5.0
    vertex 17.192031021678297 12.807968978321703 5.0
  endloop
endfacet
facet normal -0.7933533402912354 0.6087614290087203 -0.0
  outer loop
    vertex 17.68467875173176 13.450000000000003 5.0
    vertex 17.192031021678297 12.807968978321703 9.164891068280667e-15
    vertex 17.192031021678297 12.807968978321703 5.0
  endloop
endfacet
facet normal -0.7933533402912354 0.6087614290087203 -0.0
  outer loop
    vertex 17.192031021678297 12.807968978321703 9.164891068280667e-15
    vertex 17.68467875173176 13.450000000000003 5.0
    vertex 17.68467875173176 13.450000000000003 9.164891068280667e-15
  endloop
endfacet
facet normal -0.9238795325112863 0.382683432365091 -0.0
  outer loop
    vertex 17.994370061496113 14.197660960182187 5.0
    vertex 17.68467875173176 13.450000000000003 9.164891068280667e-15
    vertex 17.68467875173176 13.450000000000003 5.0
  endloop
endfacet
facet normal -0.9238795325112863 0.382683432365091 -0.0
  outer loop
    vertex 17.68467875173176 13.450000000000003 9.164891068280667e-15
    vertex 17.994370061496113 14.197660960182187 5.0
    vertex 17.994370061496113 14.197660960182187 9.164891068280667e-15
  endloop
endfacet
facet normal -0.9914448613738106 0.13052619222005057 -0.0
  outer loop
    vertex 18.1 15.0 5.0
    vertex 17.994370061496113 14.197660960182187 9.164891068280667e-15
    vertex 17.994370061496113 14.197660960182187 5.0
  endloop
endfacet
facet normal -0.9914448613738106 0.13052619222005057 -0.0
  outer loop
    vertex 17.994370061496113 14.197660960182187 9.164891068280667e-15
    vertex 18.1 15.0 5.0
    vertex 18.1 15.0 9.164891068280667e-15
  endloop
endfacet
facet normal -0.9914448613738102 -0.13052619222005352 -0.0
  outer loop
    vertex 17.99437006149611 15.802339039817817 5.0
    vertex 18.1 15.0 9.164891068280667e-15
    vertex 18.1 15.0 5.0
  endloop
endfacet
facet normal -0.9914448613738102 -0.13052619222005352 -0.0
  outer loop
    vertex 18.1 15.0 9.164891068280667e-15
    vertex 17.99437006149611 15.802339039817817 5.0
    vertex 17.99437006149611 15.802339039817817 9.164891068280667e-15
  endloop
endfacet
facet normal -0.9238795325112868 -0.38268343236508984 -0.0
  outer loop
    vertex 17.68467875173176 16.550000000000004 5.0
    vertex 17.99437006149611 15.802339039817817 9.164891068280667e-15
    vertex 17.99437006149611 15.802339039817817 5.0
  endloop
endfacet
facet normal -0.9238795325112868 -0.38268343236508984 -0.0
  outer loop
    vertex 17.99437006149611 15.802339039817817 9.164891068280667e-15
    vertex 17.68467875173176 16.550000000000004 5.0
    vertex 17.68467875173176 16.550000000000004 9.164891068280667e-15
  endloop
endfacet
facet normal -0.7933533402912358 -0.6087614290087199 -0.0
  outer loop
    vertex 17.192031021678297 17.1920310216783 5.0
    vertex 17.68467875173176 16.550000000000004 9.164891068280667e-15
    vertex 17.68467875173176 16.550000000000004 5.0
  endloop
endfacet
facet normal -0.7933533402912358 -0.6087614290087199 -0.0
  outer loop
    vertex 17.68467875173176 16.550000000000004 9.164891068280667e-15
    vertex 17.192031021678297 17.1920310216783 5.0
    vertex 17.192031021678297 17.1920310216783 9.164891068280667e-15
  endloop
endfacet
facet normal -0.6087614290087199 -0.7933533402912358 -0.0
  outer loop
    vertex 17.192031021678297 17.1920310216783 5.0
    vertex 16.55 17.68467875173176 9.164891068280667e-15
    vertex 17.192031021678297 17.1920310216783 9.164891068280667e-15
  endloop
endfacet
facet normal -0.6087614290087199 -0.7933533402912358 -0.0
  outer loop
    vertex 16.55 17.68467875173176 9.164891068280667e-15
    vertex 17.192031021678297 17.1920310216783 5.0
    vertex 16.55 17.68467875173176 5.0
  endloop
endfacet
facet normal -0.38268343236508984 -0.9238795325112868 -0.0
  outer loop
    vertex 16.55 17.68467875173176 5.0
    vertex 15.802339039817815 17.994370061496113 9.164891068280667e-15
    vertex 16.55 17.68467875173176 9.164891068280667e-15
  endloop
endfacet
facet normal -0.38268343236508984 -0.9238795325112868 -0.0
  outer loop
    vertex 15.802339039817815 17.994370061496113 9.164891068280667e-15
    vertex 16.55 17.68467875173176 5.0
    vertex 15.802339039817815 17.994370061496113 5.0
  endloop
endfacet
facet normal -0.13052619222005057 -0.9914448613738106 -0.0
  outer loop
    vertex 15.802339039817815 17.994370061496113 5.0
    vertex 15.0 18.1 9.164891068280667e-15
    vertex 15.802339039817815 17.994370061496113 9.164891068280667e-15
  endloop
endfacet
facet normal -0.13052619222005057 -0.9914448613738106 -0.0
  outer loop
    vertex 15.0 18.1 9.164891068280667e-15
    vertex 15.802339039817815 17.994370061496113 5.0
    vertex 15.0 18.1 5.0
  endloop
endfacet
facet normal 0.13052619222005352 -0.9914448613738102 -0.0
  outer loop
    vertex 15.0 18.1 5.0
    vertex 14.197660960182185 17.99437006149611 9.164891068280667e-15
    vertex 15.0 18.1 9.164891068280667e-15
  endloop
endfacet
facet normal 0.13052619222005352 -0.9914448613738102 -0.0
  outer loop
    vertex 14.197660960182185 17.99437006149611 9.164891068280667e-15
    vertex 15.0 18.1 5.0
    vertex 14.197660960182185 17.99437006149611 5.0
  endloop
endfacet
facet normal 0.38268343236508806 -0.9238795325112875 -0.0
  outer loop
    vertex 14.197660960182185 17.99437006149611 5.0
    vertex 13.450000000000001 17.68467875173176 9.164891068280667e-15
    vertex 14.197660960182185 17.99437006149611 9.164891068280667e-15
  endloop
endfacet
facet normal 0.38268343236508806 -0.9238795325112875 -0.0
  outer loop
    vertex 13.450000000000001 17.68467875173176 9.164891068280667e-15
    vertex 14.197660960182185 17.99437006149611 5.0
    vertex 13.450000000000001 17.68467875173176 5.0
  endloop
endfacet
facet normal 0.6087614290087221 -0.7933533402912342 -0.0
  outer loop
    vertex 13.450000000000001 17.68467875173176 5.0
    vertex 12.807968978321703 17.192031021678297 9.164891068280667e-15
    vertex 13.450000000000001 17.68467875173176 9.164891068280667e-15
  endloop
endfacet
facet normal 0.6087614290087221 -0.7933533402912342 -0.0
  outer loop
    vertex 12.807968978321703 17.192031021678297 9.164891068280667e-15
    vertex 13.450000000000001 17.68467875173176 5.0
    vertex 12.807968978321703 17.192031021678297 5.0
  endloop
endfacet
facet normal 0.7933533402912342 -0.6087614290087221 -0.0
  outer loop
    vertex 12.807968978321703 17.192031021678297 9.164891068280667e-15
    vertex 12.31532124826824 16.55 5.0
    vertex 12.31532124826824 16.55 9.164891068280667e-15
  endloop
endfacet
facet normal 0.7933533402912342 -0.6087614290087221 -0.0
  outer loop
    vertex 12.31532124826824 16.55 5.0
    vertex 12.807968978321703 17.192031021678297 9.164891068280667e-15
    vertex 12.807968978321703 17.192031021678297 5.0
  endloop
endfacet
facet normal 0.9238795325112875 -0.3826834323650884 -0.0
  outer loop
    vertex 12.31532124826824 16.55 9.164891068280667e-15
    vertex 12.005629938503889 15.802339039817815 5.0
    vertex 12.005629938503889 15.802339039817815 9.164891068280667e-15
  endloop
endfacet
facet normal 0.9238795325112875 -0.3826834323650884 -0.0
  outer loop
    vertex 12.005629938503889 15.802339039817815 5.0
    vertex 12.31532124826824 16.55 9.164891068280667e-15
    vertex 12.31532124826824 16.55 5.0
  endloop
endfacet
facet normal 0.9914448613738104 -0.13052619222005227 -0.0
  outer loop
    vertex 12.005629938503889 15.802339039817815 9.164891068280667e-15
    vertex 11.9 15.0 5.0
    vertex 11.9 15.0 9.164891068280667e-15
  endloop
endfacet
facet normal 0.9914448613738104 -0.13052619222005227 -0.0
  outer loop
    vertex 11.9 15.0 5.0
    vertex 12.005629938503889 15.802339039817815 9.164891068280667e-15
    vertex 12.005629938503889 15.802339039817815 5.0
  endloop
endfacet
facet normal -0.9238795325112887 0.3826834323650851 -0.0
  outer loop
    vertex 47.99437006149611 14.197660960182187 5.0
    vertex 47.68467875173177 13.450000000000003 9.164891068280667e-15
    vertex 47.68467875173177 13.450000000000003 5.0
  endloop
endfacet
facet normal -0.9238795325112887 0.3826834323650851 -0.0
  outer loop
    vertex 47.68467875173177 13.450000000000003 9.164891068280667e-15
    vertex 47.99437006149611 14.197660960182187 5.0
    vertex 47.99437006149611 14.197660960182187 9.164891068280667e-15
  endloop
endfacet
facet normal -0.9914448613738102 0.130526192220054 -0.0
  outer loop
    vertex 48.1 15.0 5.0
    vertex 47.99437006149611 14.197660960182187 9.164891068280667e-15
    vertex 47.99437006149611 14.197660960182187 5.0
  endloop
endfacet
facet normal -0.9914448613738102 0.130526192220054 -0.0
  outer loop
    vertex 47.99437006149611 14.197660960182187 9.164891068280667e-15
    vertex 48.1 15.0 5.0
    vertex 48.1 15.0 9.164891068280667e-15
  endloop
endfacet
facet normal -0.9914448613738102 -0.13052619222005352 -0.0
  outer loop
    vertex 47.99437006149611 15.802339039817817 5.0
    vertex 48.1 15.0 9.164891068280667e-15
    vertex 48.1 15.0 5.0
  endloop
endfacet
facet normal -0.9914448613738102 -0.13052619222005352 -0.0
  outer loop
    vertex 48.1 15.0 9.164891068280667e-15
    vertex 47.99437006149611 15.802339039817817 5.0
    vertex 47.99437006149611 15.802339039817817 9.164891068280667e-15
  endloop
endfacet
facet normal -0.9238795325112868 -0.38268343236508984 -0.0
  outer loop
    vertex 47.68467875173176 16.550000000000004 5.0
    vertex 47.99437006149611 15.802339039817817 9.164891068280667e-15
    vertex 47.99437006149611 15.802339039817817 5.0
  endloop
endfacet
facet normal -0.9238795325112868 -0.38268343236508984 -0.0
  outer loop
    vertex 47.99437006149611 15.802339039817817 9.164891068280667e-15
    vertex 47.68467875173176 16.550000000000004 5.0
    vertex 47.68467875173176 16.550000000000004 9.164891068280667e-15
  endloop
endfacet
facet normal -0.7933533402912342 -0.6087614290087221 -0.0
  outer loop
    vertex 47.1920310216783 17.1920310216783 5.0
    vertex 47.68467875173176 16.550000000000004 9.164891068280667e-15
    vertex 47.68467875173176 16.550000000000004 5.0
  endloop
endfacet
facet normal -0.7933533402912342 -0.6087614290087221 -0.0
  outer loop
    vertex 47.68467875173176 16.550000000000004 9.164891068280667e-15
    vertex 47.1920310216783 17.1920310216783 5.0
    vertex 47.1920310216783 17.1920310216783 9.164891068280667e-15
  endloop
endfacet
facet normal -0.6087614290087199 -0.7933533402912358 -0.0
  outer loop
    vertex 47.1920310216783 17.1920310216783 5.0
    vertex 46.55 17.68467875173176 9.164891068280667e-15
    vertex 47.1920310216783 17.1920310216783 9.164891068280667e-15
  endloop
endfacet
facet normal -0.6087614290087199 -0.7933533402912358 -0.0
  outer loop
    vertex 46.55 17.68467875173176 9.164891068280667e-15
    vertex 47.1920310216783 17.1920310216783 5.0
    vertex 46.55 17.68467875173176 5.0
  endloop
endfacet
facet normal -0.38268343236508984 -0.9238795325112868 -0.0
  outer loop
    vertex 46.55 17.68467875173176 5.0
    vertex 45.80233903981781 17.994370061496113 9.164891068280667e-15
    vertex 46.55 17.68467875173176 9.164891068280667e-15
  endloop
endfacet
facet normal -0.38268343236508984 -0.9238795325112868 -0.0
  outer loop
    vertex 45.80233903981781 17.994370061496113 9.164891068280667e-15
    vertex 46.55 17.68467875173176 5.0
    vertex 45.80233903981781 17.994370061496113 5.0
  endloop
endfacet
facet normal -0.13052619222005102 -0.9914448613738105 -0.0
  outer loop
    vertex 45.80233903981781 17.994370061496113 5.0
    vertex 45.0 18.1 9.164891068280667e-15
    vertex 45.80233903981781 17.994370061496113 9.164891068280667e-15
  endloop
endfacet
facet normal -0.13052619222005102 -0.9914448613738105 -0.0
  outer loop
    vertex 45.0 18.1 9.164891068280667e-15
    vertex 45.80233903981781 17.994370061496113 5.0
    vertex 45.0 18.1 5.0
  endloop
endfacet
facet normal 0.13052619222005352 -0.9914448613738102 -0.0
  outer loop
    vertex 45.0 18.1 5.0
    vertex 44.19766096018218 17.99437006149611 9.164891068280667e-15
    vertex 45.0 18.1 9.164891068280667e-15
  endloop
endfacet
facet normal 0.13052619222005352 -0.9914448613738102 -0.0
  outer loop
    vertex 44.19766096018218 17.99437006149611 9.164891068280667e-15
    vertex 45.0 18.1 5.0
    vertex 44.19766096018218 17.99437006149611 5.0
  endloop
endfacet
facet normal 0.3826834323650869 -0.9238795325112882 -0.0
  outer loop
    vertex 44.19766096018218 17.99437006149611 5.0
    vertex 43.45 17.68467875173176 9.164891068280667e-15
    vertex 44.19766096018218 17.99437006149611 9.164891068280667e-15
  endloop
endfacet
facet normal 0.3826834323650869 -0.9238795325112882 -0.0
  outer loop
    vertex 43.45 17.68467875173176 9.164891068280667e-15
    vertex 44.19766096018218 17.99437006149611 5.0
    vertex 43.45 17.68467875173176 5.0
  endloop
endfacet
facet normal 0.6087614290087221 -0.7933533402912342 -0.0
  outer loop
    vertex 43.45 17.68467875173176 5.0
    vertex 42.8079689783217 17.192031021678297 9.164891068280667e-15
    vertex 43.45 17.68467875173176 9.164891068280667e-15
  endloop
endfacet
facet normal 0.6087614290087221 -0.7933533402912342 -0.0
  outer loop
    vertex 42.8079689783217 17.192031021678297 9.164891068280667e-15
    vertex 43.45 17.68467875173176 5.0
    vertex 42.8079689783217 17.192031021678297 5.0
  endloop
endfacet
facet normal 0.7933533402912375 -0.6087614290087177 -0.0
  outer loop
    vertex 42.8079689783217 17.192031021678297 9.164891068280667e-15
    vertex 42.31532124826825 16.55 5.0
    vertex 42.31532124826825 16.55 9.164891068280667e-15
  endloop
endfacet
facet normal 0.7933533402912375 -0.6087614290087177 -0.0
  outer loop
    vertex 42.31532124826825 16.55 5.0
    vertex 42.8079689783217 17.192031021678297 9.164891068280667e-15
    vertex 42.8079689783217 17.192031021678297 5.0
  endloop
endfacet
facet normal 0.9238795325112868 -0.38268343236508984 -0.0
  outer loop
    vertex 42.31532124826825 16.55 9.164891068280667e-15
    vertex 42.005629938503894 15.802339039817815 5.0
    vertex 42.005629938503894 15.802339039817815 9.164891068280667e-15
  endloop
endfacet
facet normal 0.9238795325112868 -0.38268343236508984 -0.0
  outer loop
    vertex 42.005629938503894 15.802339039817815 5.0
    vertex 42.31532124826825 16.55 9.164891068280667e-15
    vertex 42.31532124826825 16.55 5.0
  endloop
endfacet
facet normal 0.9914448613738102 -0.130526192220054 -0.0
  outer loop
    vertex 42.005629938503894 15.802339039817815 9.164891068280667e-15
    vertex 41.900000000000006 15.0 5.0
    vertex 41.900000000000006 15.0 9.164891068280667e-15
  endloop
endfacet
facet normal 0.9914448613738102 -0.130526192220054 -0.0
  outer loop
    vertex 41.900000000000006 15.0 5.0
    vertex 42.005629938503894 15.802339039817815 9.164891068280667e-15
    vertex 42.005629938503894 15.802339039817815 5.0
  endloop
endfacet
facet normal 0.9914448613738102 0.13052619222005352 0.0
  outer loop
    vertex 41.900000000000006 15.0 9.164891068280667e-15
    vertex 42.005629938503894 14.197660960182185 5.0
    vertex 42.005629938503894 14.197660960182185 9.164891068280667e-15
  endloop
endfacet
facet normal 0.9914448613738102 0.13052619222005352 0.0
  outer loop
    vertex 42.005629938503894 14.197660960182185 5.0
    vertex 41.900000000000006 15.0 9.164891068280667e-15
    vertex 41.900000000000006 15.0 5.0
  endloop
endfacet
facet normal 0.9238795325112863 0.382683432365091 0.0
  outer loop
    vertex 42.005629938503894 14.197660960182185 9.164891068280667e-15
    vertex 42.31532124826825 13.450000000000001 5.0
    vertex 42.31532124826825 13.450000000000001 9.164891068280667e-15
  endloop
endfacet
facet normal 0.9238795325112863 0.382683432365091 0.0
  outer loop
    vertex 42.31532124826825 13.450000000000001 5.0
    vertex 42.005629938503894 14.197660960182185 9.164891068280667e-15
    vertex 42.005629938503894 14.197660960182185 5.0
  endloop
endfacet
facet normal 0.7933533402912375 0.6087614290087177 0.0
  outer loop
    vertex 42.31532124826825 13.450000000000001 9.164891068280667e-15
    vertex 42.8079689783217 12.807968978321703 5.0
    vertex 42.8079689783217 12.807968978321703 9.164891068280667e-15
  endloop
endfacet
facet normal 0.7933533402912375 0.6087614290087177 0.0
  outer loop
    vertex 42.8079689783217 12.807968978321703 5.0
    vertex 42.31532124826825 13.450000000000001 9.164891068280667e-15
    vertex 42.31532124826825 13.450000000000001 5.0
  endloop
endfacet
facet normal 0.6087614290087188 0.7933533402912368 0.0
  outer loop
    vertex 42.8079689783217 12.807968978321703 5.0
    vertex 43.45 12.31532124826824 9.164891068280667e-15
    vertex 42.8079689783217 12.807968978321703 9.164891068280667e-15
  endloop
endfacet
facet normal 0.6087614290087188 0.7933533402912368 0.0
  outer loop
    vertex 43.45 12.31532124826824 9.164891068280667e-15
    vertex 42.8079689783217 12.807968978321703 5.0
    vertex 43.45 12.31532124826824 5.0
  endloop
endfacet
facet normal 0.3826834323650908 0.9238795325112864 0.0
  outer loop
    vertex 43.45 12.31532124826824 5.0
    vertex 44.19766096018218 12.005629938503889 9.164891068280667e-15
    vertex 43.45 12.31532124826824 9.164891068280667e-15
  endloop
endfacet
facet normal 0.3826834323650908 0.9238795325112864 0.0
  outer loop
    vertex 44.19766096018218 12.005629938503889 9.164891068280667e-15
    vertex 43.45 12.31532124826824 5.0
    vertex 44.19766096018218 12.005629938503889 5.0
  endloop
endfacet
facet normal 0.13052619222005182 0.9914448613738104 0.0
  outer loop
    vertex 44.19766096018218 12.005629938503889 5.0
    vertex 45.0 11.9 9.164891068280667e-15
    vertex 44.19766096018218 12.005629938503889 9.164891068280667e-15
  endloop
endfacet
facet normal 0.13052619222005182 0.9914448613738104 0.0
  outer loop
    vertex 45.0 11.9 9.164891068280667e-15
    vertex 44.19766096018218 12.005629938503889 5.0
    vertex 45.0 11.9 5.0
  endloop
endfacet
facet normal -0.13052619222005182 0.9914448613738104 -0.0
  outer loop
    vertex 45.0 11.9 5.0
    vertex 45.80233903981782 12.005629938503889 9.164891068280667e-15
    vertex 45.0 11.9 9.164891068280667e-15
  endloop
endfacet
facet normal -0.13052619222005182 0.9914448613738104 -0.0
  outer loop
    vertex 45.80233903981782 12.005629938503889 9.164891068280667e-15
    vertex 45.0 11.9 5.0
    vertex 45.80233903981782 12.005629938503889 5.0
  endloop
endfacet
facet normal -0.38268343236508984 0.9238795325112868 -0.0
  outer loop
    vertex 45.80233903981782 12.005629938503889 5.0
    vertex 46.550000000000004 12.315321248268242 9.164891068280667e-15
    vertex 45.80233903981782 12.005629938503889 9.164891068280667e-15
  endloop
endfacet
facet normal -0.38268343236508984 0.9238795325112868 -0.0
  outer loop
    vertex 46.550000000000004 12.315321248268242 9.164891068280667e-15
    vertex 45.80233903981782 12.005629938503889 5.0
    vertex 46.550000000000004 12.315321248268242 5.0
  endloop
endfacet
facet normal -0.608761429008721 0.793353340291235 -0.0
  outer loop
    vertex 46.550000000000004 12.315321248268242 5.0
    vertex 47.192031021678304 12.807968978321703 9.164891068280667e-15
    vertex 46.550000000000004 12.315321248268242 9.164891068280667e-15
  endloop
endfacet
facet normal -0.608761429008721 0.793353340291235 -0.0
  outer loop
    vertex 47.192031021678304 12.807968978321703 9.164891068280667e-15
    vertex 46.550000000000004 12.315321248268242 5.0
    vertex 47.192031021678304 12.807968978321703 5.0
  endloop
endfacet
facet normal -0.7933533402912354 0.6087614290087203 -0.0
  outer loop
    vertex 47.68467875173177 13.450000000000003 5.0
    vertex 47.192031021678304 12.807968978321703 9.164891068280667e-15
    vertex 47.192031021678304 12.807968978321703 5.0
  endloop
endfacet
facet normal -0.7933533402912354 0.6087614290087203 -0.0
  outer loop
    vertex 47.192031021678304 12.807968978321703 9.164891068280667e-15
    vertex 47.68467875173177 13.450000000000003 5.0
    vertex 47.68467875173177 13.450000000000003 9.164891068280667e-15
  endloop
endfacet
facet normal -0.0 -0.0 1.0
  outer loop
    vertex 60.0 0.0 5.0
    vertex 19.0 10.0 5.0
    vertex 19.0 0.0 5.0
  endloop
endfacet
facet normal -0.0 -0.0 1.0
  outer loop
    vertex 19.0 10.0 5.0
    vertex 60.0 0.0 5.0
    vertex 30.0 11.000000000000002 5.0
  endloop
endfacet
facet normal -0.0 -0.0 1.0
  outer loop
    vertex 19.0 10.0 5.0
    vertex 30.0 11.000000000000002 5.0
    vertex 19.0 20.000000000000004 5.0
  endloop
endfacet
facet normal -0.0 -0.0 1.0
  outer loop
    vertex 19.0 20.000000000000004 5.0
    vertex 30.0 11.000000000000002 5.0
    vertex 19.0 30.0 5.0
  endloop
endfacet
facet normal -0.0 -0.0 1.0
  outer loop
    vertex 30.0 11.000000000000002 5.0
    vertex 60.0 0.0 5.0
    vertex 40.0 11.000000000000002 5.0
  endloop
endfacet
facet normal -0.0 -0.0 1.0
  outer loop
    vertex 40.0 11.000000000000002 5.0
    vertex 60.0 0.0 5.0
    vertex 43.45 12.31532124826824 5.0
  endloop
endfacet
facet normal -0.0 -0.0 1.0
  outer loop
    vertex 40.0 11.000000000000002 5.0
    vertex 43.45 12.31532124826824 5.0
    vertex 42.8079689783217 12.807968978321703 5.0
  endloop
endfacet
facet normal -0.0 -0.0 1.0
  outer loop
    vertex 40.0 11.000000000000002 5.0
    vertex 42.8079689783217 12.807968978321703 5.0
    vertex 42.31532124826825 13.450000000000001 5.0
  endloop
endfacet
facet normal -0.0 -0.0 1.0
  outer loop
    vertex 40.0 11.000000000000002 5.0
    vertex 42.31532124826825 13.450000000000001 5.0
    vertex 40.0 19.0 5.0
  endloop
endfacet
facet normal -0.0 -0.0 1.0
  outer loop
    vertex 40.0 19.0 5.0
    vertex 42.31532124826825 13.450000000000001 5.0
    vertex 42.005629938503894 14.197660960182185 5.0
  endloop
endfacet
facet normal -0.0 -0.0 1.0
  outer loop
    vertex 40.0 19.0 5.0
    vertex 42.005629938503894 14.197660960182185 5.0
    vertex 41.900000000000006 15.0 5.0
  endloop
endfacet
facet normal -0.0 -0.0 1.0
  outer loop
    vertex 43.45 12.31532124826824 5.0
    vertex 60.0 0.0 5.0
    vertex 44.19766096018218 12.005629938503889 5.0
  endloop
endfacet
facet normal -0.0 -0.0 1.0
  outer loop
    vertex 44.19766096018218 12.005629938503889 5.0
    vertex 60.0 0.0 5.0
    vertex 45.0 11.9 5.0
  endloop
endfacet
facet normal -0.0 -0.0 1.0
  outer loop
    vertex 45.0 11.9 5.0
    vertex 60.0 0.0 5.0
    vertex 45.80233903981782 12.005629938503889 5.0
  endloop
endfacet
facet normal -0.0 -0.0 1.0
  outer loop
    vertex 45.80233903981782 12.005629938503889 5.0
    vertex 60.0 0.0 5.0
    vertex 46.550000000000004 12.315321248268242 5.0
  endloop
endfacet
facet normal -0.0 -0.0 1.0
  outer loop
    vertex 46.550000000000004 12.315321248268242 5.0
    vertex 60.0 0.0 5.0
    vertex 47.192031021678304 12.807968978321703 5.0
  endloop
endfacet
facet normal -0.0 -0.0 1.0
  outer loop
    vertex 47.192031021678304 12.807968978321703 5.0
    vertex 60.0 0.0 5.0
    vertex 47.68467875173177 13.450000000000003 5.0
  endloop
endfacet
facet normal -0.0 -0.0 1.0
  outer loop
    vertex 47.68467875173177 13.450000000000003 5.0
    vertex 60.0 0.0 5.0
    vertex 50.00000000000001 11.000000000000002 5.0
  endloop
endfacet
facet normal -0.0 -0.0 1.0
  outer loop
    vertex 47.68467875173177 13.450000000000003 5.0
    vertex 50.00000000000001 11.000000000000002 5.0
    vertex 47.99437006149611 14.197660960182187 5.0
  endloop
endfacet
facet normal -0.0 -0.0 1.0
  outer loop
    vertex 47.99437006149611 14.197660960182187 5.0
    vertex 50.00000000000001 11.000000000000002 5.0
    vertex 48.1 15.0 5.0
  endloop
endfacet
facet normal -0.0 -0.0 1.0
  outer loop
    vertex 50.00000000000001 11.000000000000002 5.0
    vertex 60.0 0.0 5.0
    vertex 60.0 11.000000000000002 5.0
  endloop
endfacet
facet normal -0.0 -0.0 1.0
  outer loop
    vertex 19.0 30.0 5.0
    vertex 30.0 19.0 5.0
    vertex 60.0 30.0 5.0
  endloop
endfacet
facet normal -0.0 -0.0 1.0
  outer loop
    vertex 30.0 19.0 5.0
    vertex 19.0 30.0 5.0
    vertex 30.0 11.000000000000002 5.0
  endloop
endfacet
facet normal -0.0 -0.0 1.0
  outer loop
    vertex 60.0 30.0 5.0
    vertex 30.0 19.0 5.0
    vertex 40.0 19.0 5.0
  endloop
endfacet
facet normal -0.0 -0.0 1.0
  outer loop
    vertex 60.0 30.0 5.0
    vertex 40.0 19.0 5.0
    vertex 43.45 17.68467875173176 5.0
  endloop
endfacet
facet normal -0.0 -0.0 1.0
  outer loop
    vertex 43.45 17.68467875173176 5.0
    vertex 40.0 19.0 5.0
    vertex 42.8079689783217 17.192031021678297 5.0
  endloop
endfacet
facet normal -0.0 -0.0 1.0
  outer loop
    vertex 42.8079689783217 17.192031021678297 5.0
    vertex 40.0 19.0 5.0
    vertex 42.31532124826825 16.55 5.0
  endloop
endfacet
facet normal -0.0 -0.0 1.0
  outer loop
    vertex 42.31532124826825 16.55 5.0
    vertex 40.0 19.0 5.0
    vertex 42.005629938503894 15.802339039817815 5.0
  endloop
endfacet
facet normal -0.0 -0.0 1.0
  outer loop
    vertex 42.005629938503894 15.802339039817815 5.0
    vertex 40.0 19.0 5.0
    vertex 41.900000000000006 15.0 5.0
  endloop
endfacet
facet normal -0.0 -0.0 1.0
  outer loop
    vertex 60.0 30.0 5.0
    vertex 43.45 17.68467875173176 5.0
    vertex 44.19766096018218 17.99437006149611 5.0
  endloop
endfacet
facet normal -0.0 -0.0 1.0
  outer loop
    vertex 60.0 30.0 5.0
    vertex 44.19766096018218 17.99437006149611 5.0
    vertex 45.0 18.1 5.0
  endloop
endfacet
facet normal -0.0 -0.0 1.0
  outer loop
    vertex 60.0 30.0 5.0
    vertex 45.0 18.1 5.0
    vertex 45.80233903981781 17.994370061496113 5.0
  endloop
endfacet
facet normal -0.0 -0.0 1.0
  outer loop
    vertex 60.0 30.0 5.0
    vertex 45.80233903981781 17.994370061496113 5.0
    vertex 46.55 17.68467875173176 5.0
  endloop
endfacet
facet normal -0.0 -0.0 1.0
  outer loop
    vertex 60.0 30.0 5.0
    vertex 46.55 17.68467875173176 5.0
    vertex 47.1920310216783 17.1920310216783 5.0
  endloop
endfacet
facet normal -0.0 -0.0 1.0
  outer loop
    vertex 60.0 30.0 5.0
    vertex 47.1920310216783 17.1920310216783 5.0
    vertex 47.68467875173176 16.550000000000004 5.0
  endloop
endfacet
facet normal -0.0 -0.0 1.0
  outer loop
    vertex 60.0 30.0 5.0
    vertex 47.68467875173176 16.550000000000004 5.0
    vertex 50.00000000000001 19.0 5.0
  endloop
endfacet
facet normal -0.0 -0.0 1.0
  outer loop
    vertex 50.00000000000001 19.0 5.0
    vertex 47.68467875173176 16.550000000000004 5.0
    vertex 47.99437006149611 15.802339039817817 5.0
  endloop
endfacet
facet normal -0.0 -0.0 1.0
  outer loop
    vertex 50.00000000000001 19.0 5.0
    vertex 47.99437006149611 15.802339039817817 5.0
    vertex 48.1 15.0 5.0
  endloop
endfacet
facet normal -0.0 -0.0 1.0
  outer loop
    vertex 50.00000000000001 19.0 5.0
    vertex 48.1 15.0 5.0
    vertex 50.00000000000001 11.000000000000002 5.0
  endloop
endfacet
facet normal -0.0 -0.0 1.0
  outer loop
    vertex 60.0 30.0 5.0
    vertex 50.00000000000001 19.0 5.0
    vertex 60.0 19.0 5.0
  endloop
endfacet
facet normal -0.0 -0.0 1.0
  outer loop
    vertex 11.000000000000002 10.0 5.0
    vertex 12.005629938503889 14.197660960182185 5.0
    vertex 11.000000000000002 20.000000000000004 5.0
  endloop
endfacet
facet normal -0.0 -0.0 1.0
  outer loop
    vertex 12.005629938503889 14.197660960182185 5.0
    vertex 11.000000000000002 10.0 5.0
    vertex 12.31532124826824 13.450000000000001 5.0
  endloop
endfacet
facet normal -0.0 -0.0 1.0
  outer loop
    vertex 12.31532124826824 13.450000000000001 5.0
    vertex 11.000000000000002 10.0 5.0
    vertex 12.807968978321703 12.807968978321703 5.0
  endloop
endfacet
facet normal -0.0 -0.0 1.0
  outer loop
    vertex 12.807968978321703 12.807968978321703 5.0
    vertex 11.000000000000002 10.0 5.0
    vertex 13.450000000000001 12.31532124826824 5.0
  endloop
endfacet
facet normal -0.0 -0.0 1.0
  outer loop
    vertex 13.450000000000001 12.31532124826824 5.0
    vertex 11.000000000000002 10.0 5.0
    vertex 19.0 10.0 5.0
  endloop
endfacet
facet normal -0.0 -0.0 1.0
  outer loop
    vertex 11.000000000000002 20.000000000000004 5.0
    vertex 12.005629938503889 14.197660960182185 5.0
    vertex 11.9 15.0 5.0
  endloop
endfacet
facet normal -0.0 -0.0 1.0
  outer loop
    vertex 13.450000000000001 12.31532124826824 5.0
    vertex 19.0 10.0 5.0
    vertex 14.197660960182187 12.005629938503889 5.0
  endloop
endfacet
facet normal -0.0 -0.0 1.0
  outer loop
    vertex 14.197660960182187 12.005629938503889 5.0
    vertex 19.0 10.0 5.0
    vertex 15.0 11.9 5.0
  endloop
endfacet
facet normal -0.0 -0.0 1.0
  outer loop
    vertex 15.0 11.9 5.0
    vertex 19.0 10.0 5.0
    vertex 15.802339039817817 12.005629938503889 5.0
  endloop
endfacet
facet normal -0.0 -0.0 1.0
  outer loop
    vertex 15.802339039817817 12.005629938503889 5.0
    vertex 19.0 10.0 5.0
    vertex 16.550000000000004 12.315321248268242 5.0
  endloop
endfacet
facet normal -0.0 -0.0 1.0
  outer loop
    vertex 16.550000000000004 12.315321248268242 5.0
    vertex 19.0 10.0 5.0
    vertex 17.192031021678297 12.807968978321703 5.0
  endloop
endfacet
facet normal -0.0 -0.0 1.0
  outer loop
    vertex 17.192031021678297 12.807968978321703 5.0
    vertex 19.0 10.0 5.0
    vertex 17.68467875173176 13.450000000000003 5.0
  endloop
endfacet
facet normal -0.0 -0.0 1.0
  outer loop
    vertex 17.68467875173176 13.450000000000003 5.0
    vertex 19.0 10.0 5.0
    vertex 17.994370061496113 14.197660960182187 5.0
  endloop
endfacet
facet normal -0.0 -0.0 1.0
  outer loop
    vertex 17.994370061496113 14.197660960182187 5.0
    vertex 19.0 10.0 5.0
    vertex 18.1 15.0 5.0
  endloop
endfacet
facet normal -0.0 -0.0 1.0
  outer loop
    vertex 11.000000000000002 20.000000000000004 5.0
    vertex 13.450000000000001 17.68467875173176 5.0
    vertex 19.0 20.000000000000004 5.0
  endloop
endfacet
facet normal -0.0 -0.0 1.0
  outer loop
    vertex 13.450000000000001 17.68467875173176 5.0
    vertex 11.000000000000002 20.000000000000004 5.0
    vertex 12.807968978321703 17.192031021678297 5.0
  endloop
endfacet
facet normal -0.0 -0.0 1.0
  outer loop
    vertex 12.807968978321703 17.192031021678297 5.0
    vertex 11.000000000000002 20.000000000000004 5.0
    vertex 12.31532124826824 16.55 5.0
  endloop
endfacet
facet normal -0.0 -0.0 1.0
  outer loop
    vertex 12.31532124826824 16.55 5.0
    vertex 11.000000000000002 20.000000000000004 5.0
    vertex 12.005629938503889 15.802339039817815 5.0
  endloop
endfacet
facet normal -0.0 -0.0 1.0
  outer loop
    vertex 12.005629938503889 15.802339039817815 5.0
    vertex 11.000000000000002 20.000000000000004 5.0
    vertex 11.9 15.0 5.0
  endloop
endfacet
facet normal -0.0 -0.0 1.0
  outer loop
    vertex 19.0 20.000000000000004 5.0
    vertex 13.450000000000001 17.68467875173176 5.0
    vertex 14.197660960182185 17.99437006149611 5.0
  endloop
endfacet
facet normal -0.0 -0.0 1.0
  outer loop
    vertex 19.0 20.000000000000004 5.0
    vertex 14.197660960182185 17.99437006149611 5.0
    vertex 15.0 18.1 5.0
  endloop
endfacet
facet normal -0.0 -0.0 1.0
  outer loop
    vertex 19.0 20.000000000000004 5.0
    vertex 15.0 18.1 5.0
    vertex 15.802339039817815 17.994370061496113 5.0
  endloop
endfacet
facet normal -0.0 -0.0 1.0
  outer loop
    vertex 19.0 20.000000000000004 5.0
    vertex 15.802339039817815 17.994370061496113 5.0
    vertex 16.55 17.68467875173176 5.0
  endloop
endfacet
facet normal -0.0 -0.0 1.0
  outer loop
    vertex 19.0 20.000000000000004 5.0
    vertex 16.55 17.68467875173176 5.0
    vertex 17.192031021678297 17.1920310216783 5.0
  endloop
endfacet
facet normal -0.0 -0.0 1.0
  outer loop
    vertex 19.0 20.000000000000004 5.0
    vertex 17.192031021678297 17.1920310216783 5.0
    vertex 17.68467875173176 16.550000000000004 5.0
  endloop
endfacet
facet normal -0.0 -0.0 1.0
  outer loop
    vertex 19.0 20.000000000000004 5.0
    vertex 17.68467875173176 16.550000000000004 5.0
    vertex 17.99437006149611 15.802339039817817 5.0
  endloop
endfacet
facet normal -0.0 -0.0 1.0
  outer loop
    vertex 19.0 20.000000000000004 5.0
    vertex 17.99437006149611 15.802339039817817 5.0
    vertex 18.1 15.0 5.0
  endloop
endfacet
facet normal -0.0 -0.0 1.0
  outer loop
    vertex 19.0 20.000000000000004 5.0
    vertex 18.1 15.0 5.0
    vertex 19.0 10.0 5.0
  endloop
endfacet
facet normal -0.0 -0.0 1.0
  outer loop
    vertex 11.000000000000002 0.0 5.0
    vertex 0.0 30.0 5.0
    vertex 0.0 0.0 5.0
  endloop
endfacet
facet normal -0.0 -0.0 1.0
  outer loop
    vertex 0.0 30.0 5.0
    vertex 11.000000000000002 0.0 5.0
    vertex 11.000000000000002 30.0 5.0
  endloop
endfacet
facet normal -0.0 -0.0 1.0
  outer loop
    vertex 11.000000000000002 30.0 5.0
    vertex 11.000000000000002 0.0 5.0
    vertex 11.000000000000002 10.0 5.0
  endloop
endfacet
facet normal -0.0 -0.0 1.0
  outer loop
    vertex 11.000000000000002 30.0 5.0
    vertex 11.000000000000002 10.0 5.0
    vertex 11.000000000000002 20.000000000000004 5.0
  endloop
endfacet
facet normal 0.0 0.0 1.0
  outer loop
    vertex 60.0 11.000000000000002 7.0
    vertex 50.00000000000001 19.0 7.0
    vertex 50.00000000000001 11.000000000000002 7.0
  endloop
endfacet
facet normal 0.0 0.0 1.0
  outer loop
    vertex 50.00000000000001 19.0 7.0
    vertex 60.0 11.000000000000002 7.0
    vertex 60.0 19.0 7.0
  endloop
endfacet
facet normal 0.0 1.0 0.0
  outer loop
    vertex 50.00000000000001 19.0 7.0
    vertex 60.0 19.0 5.0
    vertex 50.00000000000001 19.0 5.0
  endloop
endfacet
facet normal 0.0 1.0 0.0
  outer loop
    vertex 60.0 19.0 5.0
    vertex 50.00000000000001 19.0 7.0
    vertex 60.0 19.0 7.0
  endloop
endfacet
facet normal -1.0 -0.0 -0.0
  outer loop
    vertex 50.00000000000001 19.0 7.0
    vertex 50.00000000000001 11.000000000000002 5.0
    vertex 50.00000000000001 11.000000000000002 7.0
  endloop
endfacet
facet normal -1.0 -0.0 -0.0
  outer loop
    vertex 50.00000000000001 11.000000000000002 5.0
    vertex 50.00000000000001 19.0 7.0
    vertex 50.00000000000001 19.0 5.0
  endloop
endfacet
facet normal 0.0 -1.0 0.0
  outer loop
    vertex 60.0 11.000000000000002 7.0
    vertex 50.00000000000001 11.000000000000002 5.0
    vertex 60.0 11.000000000000002 5.0
  endloop
endfacet
facet normal 0.0 -1.0 0.0
  outer loop
    vertex 50.00000000000001 11.000000000000002 5.0
    vertex 60.0 11.000000000000002 7.0
    vertex 50.00000000000001 11.000000000000002 7.0
  endloop
endfacet
facet normal 0.0 0.0 1.0
  outer loop
    vertex 40.0 11.000000000000002 7.0
    vertex 30.0 19.0 7.0
    vertex 30.0 11.000000000000002 7.0
  endloop
endfacet
facet normal 0.0 0.0 1.0
  outer loop
    vertex 30.0 19.0 7.0
    vertex 40.0 11.000000000000002 7.0
    vertex 40.0 19.0 7.0
  endloop
endfacet
facet normal 0.0 1.0 0.0
  outer loop
    vertex 30.0 19.0 7.0
    vertex 40.0 19.0 5.0
    vertex 30.0 19.0 5.0
  endloop
endfacet
facet normal 0.0 1.0 0.0
  outer loop
    vertex 40.0 19.0 5.0
    vertex 30.0 19.0 7.0
    vertex 40.0 19.0 7.0
  endloop
endfacet
facet normal -1.0 -0.0 -0.0
  outer loop
    vertex 30.0 19.0 7.0
    vertex 30.0 11.000000000000002 5.0
    vertex 30.0 11.000000000000002 7.0
  endloop
endfacet
facet normal -1.0 -0.0 -0.0
  outer loop
    vertex 30.0 11.000000000000002 5.0
    vertex 30.0 19.0 7.0
    vertex 30.0 19.0 5.0
  endloop
endfacet
facet normal 0.0 -1.0 0.0
  outer loop
    vertex 40.0 11.000000000000002 7.0
    vertex 30.0 11.000000000000002 5.0
    vertex 40.0 11.000000000000002 5.0
  endloop
endfacet
facet normal 0.0 -1.0 0.0
  outer loop
    vertex 30.0 11.000000000000002 5.0
    vertex 40.0 11.000000000000002 7.0
    vertex 30.0 11.000000000000002 7.0
  endloop
endfacet
facet normal 1.0 -0.0 0.0
  outer loop
    vertex 40.0 19.0 5.0
    vertex 40.0 11.000000000000002 7.0
    vertex 40.0 11.000000000000002 5.0
  endloop
endfacet
facet normal 1.0 -0.0 0.0
  outer loop
    vertex 40.0 11.000000000000002 7.0
    vertex 40.0 19.0 5.0
    vertex 40.0 19.0 7.0
  endloop
endfacet
facet normal 0.0 0.0 1.0
  outer loop
    vertex 19.0 0.0 7.0
    vertex 11.000000000000002 10.0 7.0
    vertex 11.000000000000002 0.0 7.0
  endloop
endfacet
facet normal 0.0 0.0 1.0
  outer loop
    vertex 11.000000000000002 10.0 7.0
    vertex 19.0 0.0 7.0
    vertex 19.0 10.0 7.0
  endloop
endfacet
facet normal 1.0 -0.0 0.0
  outer loop
    vertex 19.0 10.0 5.0
    vertex 19.0 0.0 7.0
    vertex 19.0 0.0 5.0
  endloop
endfacet
facet normal 1.0 -0.0 0.0
  outer loop
    vertex 19.0 0.0 7.0
    vertex 19.0 10.0 5.0
    vertex 19.0 10.0 7.0
  endloop
endfacet
facet normal 0.0 1.0 0.0
  outer loop
    vertex 11.000000000000002 10.0 7.0
    vertex 19.0 10.0 5.0
    vertex 11.000000000000002 10.0 5.0
  endloop
endfacet
facet normal 0.0 1.0 0.0
  outer loop
    vertex 19.0 10.0 5.0
    vertex 11.000000000000002 10.0 7.0
    vertex 19.0 10.0 7.0
  endloop
endfacet
facet normal -1.0 -0.0 -0.0
  outer loop
    vertex 11.000000000000002 10.0 7.0
    vertex 11.000000000000002 0.0 5.0
    vertex 11.000000000000002 0.0 7.0
  endloop
endfacet
facet normal -1.0 -0.0 -0.0
  outer loop
    vertex 11.000000000000002 0.0 5.0
    vertex 11.000000000000002 10.0 7.0
    vertex 11.000000000000002 10.0 5.0
  endloop
endfacet
facet normal 0.0 0.0 1.0
  outer loop
    vertex 19.0 20.000000000000004 7.0
    vertex 11.000000000000002 30.0 7.0
    vertex 11.000000000000002 20.000000000000004 7.0
  endloop
endfacet
facet normal 0.0 0.0 1.0
  outer loop
    vertex 11.000000000000002 30.0 7.0
    vertex 19.0 20.000000000000004 7.0
    vertex 19.0 30.0 7.0
  endloop
endfacet
facet normal -1.0 -0.0 -0.0
  outer loop
    vertex 11.000000000000002 30.0 7.0
    vertex 11.000000000000002 20.000000000000004 5.0
    vertex 11.000000000000002 20.000000000000004 7.0
  endloop
endfacet
facet normal -1.0 -0.0 -0.0
  outer loop
    vertex 11.000000000000002 20.000000000000004 5.0
    vertex 11.000000000000002 30.0 7.0
    vertex 11.000000000000002 30.0 5.0
  endloop
endfacet
facet normal 0.0 -1.0 0.0
  outer loop
    vertex 19.0 20.000000000000004 7.0
    vertex 11.000000000000002 20.000000000000004 5.0
    vertex 19.0 20.000000000000004 5.0
  endloop
endfacet
facet normal 0.0 -1.0 0.0
  outer loop
    vertex 11.000000000000002 20.000000000000004 5.0
    vertex 19.0 20.000000000000004 7.0
    vertex 11.000000000000002 20.000000000000004 7.0
  endloop
endfacet
facet normal 1.0 -0.0 0.0
  outer loop
    vertex 19.0 30.0 5.0
    vertex 19.0 20.000000000000004 7.0
    vertex 19.0 20.000000000000004 5.0
  endloop
endfacet
facet normal 1.0 -0.0 0.0
  outer loop
    vertex 19.0 20.000000000000004 7.0
    vertex 19.0 30.0 5.0
    vertex 19.0 30.0 7.0
  endloop
endfacet
facet normal 0.0 -1.0 0.0
  outer loop
    vertex 19.0 0.0 7.0
    vertex 11.000000000000002 0.0 5.0
    vertex 19.0 0.0 5.0
  endloop
endfacet
facet normal 0.0 -1.0 0.0
  outer loop
    vertex 11.000000000000002 0.0 5.0
    vertex 19.0 0.0 7.0
    vertex 11.000000000000002 0.0 7.0
  endloop
endfacet
facet normal 0.0 -1.0 0.0
  outer loop
    vertex 60.0 0.0 5.0
    vertex 0.0 0.0 0.9999999999999999
    vertex 60.0 0.0 0.9999999999999999
  endloop
endfacet
facet normal 0.0 -1.0 0.0
  outer loop
    vertex 0.0 0.0 0.9999999999999999
    vertex 60.0 0.0 5.0
    vertex 0.0 0.0 5.0
  endloop
endfacet
facet normal 0.0 -1.0 0.0
  outer loop
    vertex 0.0 0.0 5.0
    vertex 60.0 0.0 5.0
    vertex 19.0 0.0 5.0
  endloop
endfacet
facet normal 0.0 -1.0 0.0
  outer loop
    vertex 0.0 0.0 5.0
    vertex 19.0 0.0 5.0
    vertex 11.000000000000002 0.0 5.0
  endloop
endfacet
facet normal -1.0 0.0 0.0
  outer loop
    vertex 0.0 30.0 5.0
    vertex 0.0 0.0 0.9999999999999999
    vertex 0.0 0.0 5.0
  endloop
endfacet
facet normal -1.0 0.0 0.0
  outer loop
    vertex 0.0 0.0 0.9999999999999999
    vertex 0.0 30.0 5.0
    vertex 0.0 30.0 0.9999999999999999
  endloop
endfacet
facet normal -0.0 1.0 -0.0
  outer loop
    vertex 11.000000000000002 30.0 7.0
    vertex 19.0 30.0 5.0
    vertex 11.000000000000002 30.0 5.0
  endloop
endfacet
facet normal -0.0 1.0 -0.0
  outer loop
    vertex 19.0 30.0 5.0
    vertex 11.000000000000002 30.0 7.0
    vertex 19.0 30.0 7.0
  endloop
endfacet
facet normal -0.0 1.0 -0.0
  outer loop
    vertex 0.0 30.0 5.0
    vertex 60.0 30.0 0.9999999999999999
    vertex 0.0 30.0 0.9999999999999999
  endloop
endfacet
facet normal -0.0 1.0 -0.0
  outer loop
    vertex 60.0 30.0 0.9999999999999999
    vertex 0.0 30.0 5.0
    vertex 60.0 30.0 5.0
  endloop
endfacet
facet normal -0.0 1.0 -0.0
  outer loop
    vertex 60.0 30.0 5.0
    vertex 0.0 30.0 5.0
    vertex 11.000000000000002 30.0 5.0
  endloop
endfacet
facet normal -0.0 1.0 -0.0
  outer loop
    vertex 60.0 30.0 5.0
    vertex 11.000000000000002 30.0 5.0
    vertex 19.0 30.0 5.0
  endloop
endfacet
facet normal 0.0 0.0 -1.0
  outer loop
    vertex 0.999999999999999 29.000000000000004 0.0
    vertex 12.31532124826824 16.55 9.164891068280667e-15
    vertex 0.999999999999999 1.0000000000000004 0.0
  endloop
endfacet
facet normal 0.0 0.0 -1.0
  outer loop
    vertex 12.31532124826824 16.55 9.164891068280667e-15
    vertex 0.999999999999999 29.000000000000004 0.0
    vertex 12.807968978321703 17.192031021678297 9.164891068280667e-15
  endloop
endfacet
facet normal 0.0 0.0 -1.0
  outer loop
    vertex 12.807968978321703 17.192031021678297 9.164891068280667e-15
    vertex 0.999999999999999 29.000000000000004 0.0
    vertex 13.450000000000001 17.68467875173176 9.164891068280667e-15
  endloop
endfacet
facet normal 0.0 0.0 -1.0
  outer loop
    vertex 13.450000000000001 17.68467875173176 9.164891068280667e-15
    vertex 0.999999999999999 29.000000000000004 0.0
    vertex 14.197660960182185 17.99437006149611 9.164891068280667e-15
  endloop
endfacet
facet normal 0.0 0.0 -1.0
  outer loop
    vertex 14.197660960182185 17.99437006149611 9.164891068280667e-15
    vertex 0.999999999999999 29.000000000000004 0.0
    vertex 59.00000000000001 29.000000000000004 0.0
  endloop
endfacet
facet normal 0.0 0.0 -1.0
  outer loop
    vertex 0.999999999999999 1.0000000000000004 0.0
    vertex 12.31532124826824 16.55 9.164891068280667e-15
    vertex 12.005629938503889 15.802339039817815 9.164891068280667e-15
  endloop
endfacet
facet normal 0.0 0.0 -1.0
  outer loop
    vertex 0.999999999999999 1.0000000000000004 0.0
    vertex 12.005629938503889 15.802339039817815 9.164891068280667e-15
    vertex 11.9 15.0 9.164891068280667e-15
  endloop
endfacet
facet normal 0.0 0.0 -1.0
  outer loop
    vertex 14.197660960182185 17.99437006149611 9.164891068280667e-15
    vertex 59.00000000000001 29.000000000000004 0.0
    vertex 15.0 18.1 9.164891068280667e-15
  endloop
endfacet
facet normal 0.0 0.0 -1.0
  outer loop
    vertex 15.0 18.1 9.164891068280667e-15
    vertex 59.00000000000001 29.000000000000004 0.0
    vertex 15.802339039817815 17.994370061496113 9.164891068280667e-15
  endloop
endfacet
facet normal 0.0 0.0 -1.0
  outer loop
    vertex 15.802339039817815 17.994370061496113 9.164891068280667e-15
    vertex 59.00000000000001 29.000000000000004 0.0
    vertex 16.55 17.68467875173176 9.164891068280667e-15
  endloop
endfacet
facet normal 0.0 0.0 -1.0
  outer loop
    vertex 16.55 17.68467875173176 9.164891068280667e-15
    vertex 59.00000000000001 29.000000000000004 0.0
    vertex 17.192031021678297 17.1920310216783 9.164891068280667e-15
  endloop
endfacet
facet normal 0.0 0.0 -1.0
  outer loop
    vertex 17.192031021678297 17.1920310216783 9.164891068280667e-15
    vertex 59.00000000000001 29.000000000000004 0.0
    vertex 17.68467875173176 16.550000000000004 9.164891068280667e-15
  endloop
endfacet
facet normal 0.0 0.0 -1.0
  outer loop
    vertex 17.68467875173176 16.550000000000004 9.164891068280667e-15
    vertex 59.00000000000001 29.000000000000004 0.0
    vertex 17.99437006149611 15.802339039817817 9.164891068280667e-15
  endloop
endfacet
facet normal 0.0 0.0 -1.0
  outer loop
    vertex 17.99437006149611 15.802339039817817 9.164891068280667e-15
    vertex 59.00000000000001 29.000000000000004 0.0
    vertex 18.1 15.0 9.164891068280667e-15
  endloop
endfacet
facet normal 0.0 0.0 -1.0
  outer loop
    vertex 18.1 15.0 9.164891068280667e-15
    vertex 59.00000000000001 29.000000000000004 0.0
    vertex 43.45 17.68467875173176 9.164891068280667e-15
  endloop
endfacet
facet normal 0.0 0.0 -1.0
  outer loop
    vertex 18.1 15.0 9.164891068280667e-15
    vertex 43.45 17.68467875173176 9.164891068280667e-15
    vertex 42.8079689783217 17.192031021678297 9.164891068280667e-15
  endloop
endfacet
facet normal 0.0 0.0 -1.0
  outer loop
    vertex 18.1 15.0 9.164891068280667e-15
    vertex 42.8079689783217 17.192031021678297 9.164891068280667e-15
    vertex 42.31532124826825 16.55 9.164891068280667e-15
  endloop
endfacet
facet normal 0.0 0.0 -1.0
  outer loop
    vertex 18.1 15.0 9.164891068280667e-15
    vertex 42.31532124826825 16.55 9.164891068280667e-15
    vertex 42.005629938503894 15.802339039817815 9.164891068280667e-15
  endloop
endfacet
facet normal 0.0 0.0 -1.0
  outer loop
    vertex 18.1 15.0 9.164891068280667e-15
    vertex 42.005629938503894 15.802339039817815 9.164891068280667e-15
    vertex 41.900000000000006 15.0 9.164891068280667e-15
  endloop
endfacet
facet normal 0.0 0.0 -1.0
  outer loop
    vertex 43.45 17.68467875173176 9.164891068280667e-15
    vertex 59.00000000000001 29.000000000000004 0.0
    vertex 44.19766096018218 17.99437006149611 9.164891068280667e-15
  endloop
endfacet
facet normal 0.0 0.0 -1.0
  outer loop
    vertex 44.19766096018218 17.99437006149611 9.164891068280667e-15
    vertex 59.00000000000001 29.000000000000004 0.0
    vertex 45.0 18.1 9.164891068280667e-15
  endloop
endfacet
facet normal 0.0 0.0 -1.0
  outer loop
    vertex 45.0 18.1 9.164891068280667e-15
    vertex 59.00000000000001 29.000000000000004 0.0
    vertex 45.80233903981781 17.994370061496113 9.164891068280667e-15
  endloop
endfacet
facet normal 0.0 0.0 -1.0
  outer loop
    vertex 45.80233903981781 17.994370061496113 9.164891068280667e-15
    vertex 59.00000000000001 29.000000000000004 0.0
    vertex 46.55 17.68467875173176 9.164891068280667e-15
  endloop
endfacet
facet normal 0.0 0.0 -1.0
  outer loop
    vertex 46.55 17.68467875173176 9.164891068280667e-15
    vertex 59.00000000000001 29.000000000000004 0.0
    vertex 47.1920310216783 17.1920310216783 9.164891068280667e-15
  endloop
endfacet
facet normal 0.0 0.0 -1.0
  outer loop
    vertex 47.1920310216783 17.1920310216783 9.164891068280667e-15
    vertex 59.00000000000001 29.000000000000004 0.0
    vertex 47.68467875173176 16.550000000000004 9.164891068280667e-15
  endloop
endfacet
facet normal 0.0 0.0 -1.0
  outer loop
    vertex 47.68467875173176 16.550000000000004 9.164891068280667e-15
    vertex 59.00000000000001 29.000000000000004 0.0
    vertex 47.99437006149611 15.802339039817817 9.164891068280667e-15
  endloop
endfacet
facet normal 0.0 0.0 -1.0
  outer loop
    vertex 47.99437006149611 15.802339039817817 9.164891068280667e-15
    vertex 59.00000000000001 29.000000000000004 0.0
    vertex 48.1 15.0 9.164891068280667e-15
  endloop
endfacet
facet normal 0.0 0.0 -1.0
  outer loop
    vertex 0.999999999999999 1.0000000000000004 0.0
    vertex 14.197660960182187 12.005629938503889 9.164891068280667e-15
    vertex 59.00000000000001 1.0000000000000004 0.0
  endloop
endfacet
facet normal 0.0 0.0 -1.0
  outer loop
    vertex 14.197660960182187 12.005629938503889 9.164891068280667e-15
    vertex 0.999999999999999 1.0000000000000004 0.0
    vertex 13.450000000000001 12.31532124826824 9.164891068280667e-15
  endloop
endfacet
facet normal 0.0 0.0 -1.0
  outer loop
    vertex 13.450000000000001 12.31532124826824 9.164891068280667e-15
    vertex 0.999999999999999 1.0000000000000004 0.0
    vertex 12.807968978321703 12.807968978321703 9.164891068280667e-15
  endloop
endfacet
facet normal 0.0 0.0 -1.0
  outer loop
    vertex 12.807968978321703 12.807968978321703 9.164891068280667e-15
    vertex 0.999999999999999 1.0000000000000004 0.0
    vertex 12.31532124826824 13.450000000000001 9.164891068280667e-15
  endloop
endfacet
facet normal 0.0 0.0 -1.0
  outer loop
    vertex 12.31532124826824 13.450000000000001 9.164891068280667e-15
    vertex 0.999999999999999 1.0000000000000004 0.0
    vertex 12.005629938503889 14.197660960182185 9.164891068280667e-15
  endloop
endfacet
facet normal 0.0 0.0 -1.0
  outer loop
    vertex 12.005629938503889 14.197660960182185 9.164891068280667e-15
    vertex 0.999999999999999 1.0000000000000004 0.0
    vertex 11.9 15.0 9.164891068280667e-15
  endloop
endfacet
facet normal 0.0 0.0 -1.0
  outer loop
    vertex 59.00000000000001 1.0000000000000004 0.0
    vertex 14.197660960182187 12.005629938503889 9.164891068280667e-15
    vertex 15.0 11.9 9.164891068280667e-15
  endloop
endfacet
facet normal 0.0 0.0 -1.0
  outer loop
    vertex 59.00000000000001 1.0000000000000004 0.0
    vertex 15.0 11.9 9.164891068280667e-15
    vertex 15.802339039817817 12.005629938503889 9.164891068280667e-15
  endloop
endfacet
facet normal 0.0 0.0 -1.0
  outer loop
    vertex 59.00000000000001 1.0000000000000004 0.0
    vertex 15.802339039817817 12.005629938503889 9.164891068280667e-15
    vertex 16.550000000000004 12.315321248268242 9.164891068280667e-15
  endloop
endfacet
facet normal 0.0 0.0 -1.0
  outer loop
    vertex 59.00000000000001 1.0000000000000004 0.0
    vertex 16.550000000000004 12.315321248268242 9.164891068280667e-15
    vertex 17.192031021678297 12.807968978321703 9.164891068280667e-15
  endloop
endfacet
facet normal 0.0 0.0 -1.0
  outer loop
    vertex 59.00000000000001 1.0000000000000004 0.0
    vertex 17.192031021678297 12.807968978321703 9.164891068280667e-15
    vertex 17.68467875173176 13.450000000000003 9.164891068280667e-15
  endloop
endfacet
facet normal 0.0 0.0 -1.0
  outer loop
    vertex 59.00000000000001 1.0000000000000004 0.0
    vertex 17.68467875173176 13.450000000000003 9.164891068280667e-15
    vertex 17.994370061496113 14.197660960182187 9.164891068280667e-15
  endloop
endfacet
facet normal 0.0 0.0 -1.0
  outer loop
    vertex 59.00000000000001 1.0000000000000004 0.0
    vertex 17.994370061496113 14.197660960182187 9.164891068280667e-15
    vertex 18.1 15.0 9.164891068280667e-15
  endloop
endfacet
facet normal 0.0 0.0 -1.0
  outer loop
    vertex 59.00000000000001 1.0000000000000004 0.0
    vertex 18.1 15.0 9.164891068280667e-15
    vertex 43.45 12.31532124826824 9.164891068280667e-15
  endloop
endfacet
facet normal 0.0 0.0 -1.0
  outer loop
    vertex 43.45 12.31532124826824 9.164891068280667e-15
    vertex 18.1 15.0 9.164891068280667e-15
    vertex 42.8079689783217 12.807968978321703 9.164891068280667e-15
  endloop
endfacet
facet normal 0.0 0.0 -1.0
  outer loop
    vertex 42.8079689783217 12.807968978321703 9.164891068280667e-15
    vertex 18.1 15.0 9.164891068280667e-15
    vertex 42.31532124826825 13.450000000000001 9.164891068280667e-15
  endloop
endfacet
facet normal 0.0 0.0 -1.0
  outer loop
    vertex 42.31532124826825 13.450000000000001 9.164891068280667e-15
    vertex 18.1 15.0 9.164891068280667e-15
    vertex 42.005629938503894 14.197660960182185 9.164891068280667e-15
  endloop
endfacet
facet normal 0.0 0.0 -1.0
  outer loop
    vertex 42.005629938503894 14.197660960182185 9.164891068280667e-15
    vertex 18.1 15.0 9.164891068280667e-15
    vertex 41.900000000000006 15.0 9.164891068280667e-15
  endloop
endfacet
facet normal 0.0 0.0 -1.0
  outer loop
    vertex 59.00000000000001 1.0000000000000004 0.0
    vertex 43.45 12.31532124826824 9.164891068280667e-15
    vertex 44.19766096018218 12.005629938503889 9.164891068280667e-15
  endloop
endfacet
facet normal 0.0 0.0 -1.0
  outer loop
    vertex 59.00000000000001 1.0000000000000004 0.0
    vertex 44.19766096018218 12.005629938503889 9.164891068280667e-15
    vertex 45.0 11.9 9.164891068280667e-15
  endloop
endfacet
facet normal 0.0 0.0 -1.0
  outer loop
    vertex 59.00000000000001 1.0000000000000004 0.0
    vertex 45.0 11.9 9.164891068280667e-15
    vertex 45.80233903981782 12.005629938503889 9.164891068280667e-15
  endloop
endfacet
facet normal 0.0 0.0 -1.0
  outer loop
    vertex 59.00000000000001 1.0000000000000004 0.0
    vertex 45.80233903981782 12.005629938503889 9.164891068280667e-15
    vertex 46.550000000000004 12.315321248268242 9.164891068280667e-15
  endloop
endfacet
facet normal 0.0 0.0 -1.0
  outer loop
    vertex 59.00000000000001 1.0000000000000004 0.0
    vertex 46.550000000000004 12.315321248268242 9.164891068280667e-15
    vertex 47.192031021678304 12.807968978321703 9.164891068280667e-15
  endloop
endfacet
facet normal 0.0 0.0 -1.0
  outer loop
    vertex 59.00000000000001 1.0000000000000004 0.0
    vertex 47.192031021678304 12.807968978321703 9.164891068280667e-15
    vertex 47.68467875173177 13.450000000000003 9.164891068280667e-15
  endloop
endfacet
facet normal 0.0 0.0 -1.0
  outer loop
    vertex 59.00000000000001 1.0000000000000004 0.0
    vertex 47.68467875173177 13.450000000000003 9.164891068280667e-15
    vertex 47.99437006149611 14.197660960182187 9.164891068280667e-15
  endloop
endfacet
facet normal 0.0 0.0 -1.0
  outer loop
    vertex 59.00000000000001 1.0000000000000004 0.0
    vertex 47.99437006149611 14.197660960182187 9.164891068280667e-15
    vertex 48.1 15.0 9.164891068280667e-15
  endloop
endfacet
facet normal 0.0 0.0 -1.0
  outer loop
    vertex 59.00000000000001 1.0000000000000004 0.0
    vertex 48.1 15.0 9.164891068280667e-15
    vertex 59.00000000000001 29.000000000000004 0.0
  endloop
endfacet
facet normal 1.0 -0.0 -0.0
  outer loop
    vertex 60.0 30.0 0.9999999999999999
    vertex 60.0 0.0 5.0
    vertex 60.0 0.0 0.9999999999999999
  endloop
endfacet
facet normal 1.0 -0.0 -0.0
  outer loop
    vertex 60.0 0.0 5.0
    vertex 60.0 30.0 0.9999999999999999
    vertex 60.0 11.000000000000002 5.0
  endloop
endfacet
facet normal 1.0 -0.0 -0.0
  outer loop
    vertex 60.0 11.000000000000002 5.0
    vertex 60.0 30.0 0.9999999999999999
    vertex 60.0 11.000000000000002 7.0
  endloop
endfacet
facet normal 1.0 -0.0 -0.0
  outer loop
    vertex 60.0 11.000000000000002 7.0
    vertex 60.0 30.0 0.9999999999999999
    vertex 60.0 19.0 5.0
  endloop
endfacet
facet normal 1.0 -0.0 -0.0
  outer loop
    vertex 60.0 19.0 5.0
    vertex 60.0 30.0 0.9999999999999999
    vertex 60.0 30.0 5.0
  endloop
endfacet
facet normal 1.0 -0.0 -0.0
  outer loop
    vertex 60.0 19.0 7.0
    vertex 60.0 11.000000000000002 7.0
    vertex 60.0 19.0 5.0
  endloop
endfacet
facet normal -0.0 0.7071067811865482 -0.7071067811865469
  outer loop
    vertex 0.0 30.0 0.9999999999999999
    vertex 59.00000000000001 29.000000000000004 0.0
    vertex 0.999999999999999 29.000000000000004 0.0
  endloop
endfacet
facet normal -0.0 0.7071067811865482 -0.7071067811865469
  outer loop
    vertex 59.00000000000001 29.000000000000004 0.0
    vertex 0.0 30.0 0.9999999999999999
    vertex 60.0 30.0 0.9999999999999999
  endloop
endfacet
facet normal 0.7071067811865481 3.418626460433019e-33 -0.707106781186547
  outer loop
    vertex 59.00000000000001 1.0000000000000004 0.0
    vertex 60.0 30.0 0.9999999999999999
    vertex 60.0 0.0 0.9999999999999999
  endloop
endfacet
facet normal 0.7071067811865481 3.418626460433019e-33 -0.707106781186547
  outer loop
    vertex 60.0 30.0 0.9999999999999999
    vertex 59.00000000000001 1.0000000000000004 0.0
    vertex 59.00000000000001 29.000000000000004 0.0
  endloop
endfacet
facet normal -0.7071067811865479 -9.398760861828448e-19 -0.7071067811865472
  outer loop
    vertex 0.0 30.0 0.9999999999999999
    vertex 0.999999999999999 1.0000000000000004 0.0
    vertex 0.0 0.0 0.9999999999999999
  endloop
endfacet
facet normal -0.7071067811865479 -9.398760861828448e-19 -0.7071067811865472
  outer loop
    vertex 0.999999999999999 1.0000000000000004 0.0
    vertex 0.0 30.0 0.9999999999999999
    vertex 0.999999999999999 29.000000000000004 0.0
  endloop
endfacet
facet normal 0.0 -0.7071067811865474 -0.7071067811865478
  outer loop
    vertex 0.999999999999999 1.0000000000000004 0.0
    vertex 60.0 0.0 0.9999999999999999
    vertex 0.0 0.0 0.9999999999999999
  endloop
endfacet
facet normal 0.0 -0.7071067811865474 -0.7071067811865478
  outer loop
    vertex 60.0 0.0 0.9999999999999999
    vertex 0.999999999999999 1.0000000000000004 0.0
    vertex 59.00000000000001 1.0000000000000004 0.0
  endloop
endfacet
endsolid corner-coupler-flat
